<svg id="Layer_2" data-name="Layer 2" xmlns="http://www.w3.org/2000/svg" xmlns:xlink="http://www.w3.org/1999/xlink" viewBox="0 0 400 300" width="406" height="306" class="illustration styles_illustrationTablet__1DWOa"><defs><linearGradient id="linear-gradient" x1="216.05" y1="182.84" x2="204.24" y2="196.19" gradientUnits="userSpaceOnUse"><stop offset="0" stop-color="#163b58"></stop><stop offset="1" stop-color="#225870"></stop></linearGradient><linearGradient id="linear-gradient-2" x1="149.47" y1="142.61" x2="137.4" y2="156.22" xlink:href="#linear-gradient"></linearGradient><linearGradient id="linear-gradient-3" x1="63.12" y1="186.31" x2="45.21" y2="193.79" xlink:href="#linear-gradient"></linearGradient><linearGradient id="linear-gradient-4" x1="134.92" y1="232.64" x2="117.01" y2="240.12" xlink:href="#linear-gradient"></linearGradient><linearGradient id="linear-gradient-5" x1="309.69" y1="193.42" x2="282.37" y2="210.16" xlink:href="#linear-gradient"></linearGradient><linearGradient id="linear-gradient-6" x1="78.61" y1="183.75" x2="99.31" y2="115.69" gradientUnits="userSpaceOnUse"><stop offset="0" stop-color="#ffdb7b"></stop><stop offset="0.23" stop-color="#da2e81"></stop><stop offset="0.59" stop-color="#9736bb"></stop><stop offset="1" stop-color="#4e62d4"></stop></linearGradient></defs><title>aaa</title><path d="M196.69,279.77,345.9,191.58c4.75-2.67,8.83-7,4.19-9.92L200.35,95.36c-2.25-1.39-5.66-2.3-7.94-1L35.77,185.29c-4.75,2.76-5.6,10.46-.85,13.22L177,279.63A19.84,19.84,0,0,0,196.69,279.77Z" fill="#225870"></path><polyline points="232.87 155.72 183.8 182.9 209.71 198.09 262.88 166.31" fill="url(#linear-gradient)"></polyline><polyline points="166.34 115.44 117.27 142.62 143.18 157.81 196.36 126.03" fill="url(#linear-gradient-2)"></polyline><polyline points="83.53 161.43 34.47 188.61 60.38 203.8 113.55 172.03" fill="url(#linear-gradient-3)"></polyline><polyline points="155.33 207.76 106.27 234.94 132.17 250.13 185.35 218.35" fill="url(#linear-gradient-4)"></polyline><polyline points="310.9 185.58 274.19 203.16 280.61 223.25 327.4 190.41" fill="url(#linear-gradient-5)"></polyline><path d="M315.22,162.46A25.56,25.56,0,0,0,309.88,180c.71,10.26,6.49,13.24,6.49,13.24l6.88.38s8.18-2.67,7.11-16c-1-12.53-5.08-15.47-5.08-15.47" fill="#096386"></path><ellipse cx="320.28" cy="162.46" rx="5.06" ry="1.79" fill="#003b94"></ellipse><ellipse cx="320.28" cy="192.2" rx="5.06" ry="1.79" fill="#096386"></ellipse><path d="M318.2,163l-6.13-35.16c-.13-.77-1.3-.44-1.17.32L317,163.33C317.17,164.09,318.34,163.77,318.2,163Z" fill="#007f68"></path><path d="M319.32,163.12a1.46,1.46,0,0,1,.56,0,1.27,1.27,0,0,1,.63.38q.73-14.73.26-29.48c0-.78-1.23-.78-1.21,0Q320,148.58,319.32,163.12Z" fill="#007f68"></path><path d="M333.09,129a323.29,323.29,0,0,0-11.84,33.78.61.61,0,0,0,1.17.32,323.28,323.28,0,0,1,11.84-33.78C334.56,128.61,333.39,128.3,333.09,129Z" fill="#007f68"></path><path d="M313.38,142.35s-.66-.08-3.55-3.12.76-5.33-.91-8.75.69-7.92,1.22-11.34a15.88,15.88,0,0,0,2.54,6.7c2.18,3.12,3.4,5.94,3.17,9.9a35,35,0,0,1-1.28,7.38" fill="#007f68"></path><path d="M319.59,147.77s-.62-.24-2.69-3.9,2-5,1.24-8.71,2.59-7.51,3.94-10.71a15.88,15.88,0,0,0,.84,7.12c1.36,3.56,1.85,6.58.67,10.37a35,35,0,0,1-3,6.85" fill="#007f68"></path><path d="M328.22,141.44s-.56-.36-1.83-4.36,3-4.46,3-8.28,4.07-6.82,6-9.67a15.88,15.88,0,0,0-.64,7.14c.6,3.76.47,6.82-1.47,10.29a35,35,0,0,1-4.38,6.08" fill="#007f68"></path><path d="M108,108.55,59.47,136.46a4.86,4.86,0,0,0-2.41,4.74l6.24,56.56a2.29,2.29,0,0,0,3.41,1.74l49.53-28.69a4.33,4.33,0,0,0,2.11-4.26c-2.16-18.66-4.09-36.31-6.21-55.8A2.81,2.81,0,0,0,108,108.55Z" fill="url(#linear-gradient-6)"></path><path d="M191,62.74,142.53,90.65a4.86,4.86,0,0,0-2.41,4.74L146.36,152a2.29,2.29,0,0,0,3.41,1.74L199.3,125a4.33,4.33,0,0,0,2.11-4.26c-2.16-18.66-4.09-36.31-6.21-55.8A2.81,2.81,0,0,0,191,62.74Z" fill="#096386"></path><path d="M191,62.74,142.53,90.65a4.86,4.86,0,0,0-2.41,4.74L146.36,152a2.29,2.29,0,0,0,3.41,1.74L199.3,125a4.33,4.33,0,0,0,2.11-4.26c-2.16-18.66-4.09-36.31-6.21-55.8A2.81,2.81,0,0,0,191,62.74Z" fill="#2e2e75" opacity="0.53"></path><path d="M177.07,156.09,128.58,184a4.86,4.86,0,0,0-2.41,4.74l6.24,56.56a2.29,2.29,0,0,0,3.41,1.74l49.53-28.69a4.33,4.33,0,0,0,2.11-4.26c-2.16-18.66-4.09-36.31-6.21-55.8A2.81,2.81,0,0,0,177.07,156.09Z" fill="#cc2127"></path><path d="M171,180.95a24.88,24.88,0,0,1,4.85,11.46,30.76,30.76,0,0,1,.46,5.89,33.79,33.79,0,0,1-6.5,19.85,22.25,22.25,0,0,1-7.53,6.64,19.56,19.56,0,0,1-2.6,1.13,14.65,14.65,0,0,1-6.17.8,15.19,15.19,0,0,1-10.18-5.37,22.74,22.74,0,0,1-4.73-8.9c-.09-.31-.19-.62-.29-.93l-.41-1.86c0-.11,0-.21,0-.31-.14-1.17-.35-2.33-.42-3.52A34.54,34.54,0,0,1,141.57,187a25.14,25.14,0,0,1,8.44-9.41l.69-.47,1.6-.84.15,0c.45-.18.89-.38,1.35-.54a14.48,14.48,0,0,1,7.18-.8A15.48,15.48,0,0,1,171,180.95Zm-3.51,17a24.1,24.1,0,0,0-.47-8.13,10.67,10.67,0,0,0-2.2-4.65,7.3,7.3,0,0,0-6.62-2.84l-.72.1a10.91,10.91,0,0,0-3,1l-.24.12-.49.27a12.89,12.89,0,0,0-1.11.73l-.31.24a17,17,0,0,0-2.79,2.79l-.14.17a17.62,17.62,0,0,0-3.73,10.91,15.44,15.44,0,0,0,.35,3.59,11.38,11.38,0,0,0,1.66,3.9,3.93,3.93,0,0,0,3.26,2,.65.65,0,0,0,.32-.07.6.6,0,0,0,.2-.18,1.18,1.18,0,0,0,.19-.72c0-.55,0-1.1,0-1.65a1.9,1.9,0,0,0,0-.47,1.14,1.14,0,0,0-.47-.7,4.23,4.23,0,0,1-1.41-1.85,8.66,8.66,0,0,1-.5-1.56,11.84,11.84,0,0,1-.25-1.7,13.12,13.12,0,0,1,2.22-8.76q.28-.39.56-.75a9.83,9.83,0,0,1,2.61-2.31l.36-.2a7.8,7.8,0,0,1,1.87-.7,8,8,0,0,1,1.11-.18,4.41,4.41,0,0,1,4.31,2.4,9.19,9.19,0,0,1,1.05,2.75q.08.35.15.71a23.54,23.54,0,0,1,.43,4.75,14.76,14.76,0,0,1-.79,4.81,8.85,8.85,0,0,1-.49,1.11,4.66,4.66,0,0,1-1.64,1.86l-.2.11-.1,0-.1,0-.2.08a1.92,1.92,0,0,1-2.31-.64,2.89,2.89,0,0,1-.56-1.2,5.06,5.06,0,0,1-.12-1.15c0-1.68,0-3.37,0-5.06a11.77,11.77,0,0,0-.21-2.57q0-.18-.09-.35a2.55,2.55,0,0,0-1.15-1.7,1.61,1.61,0,0,0-1.37,0l-.2.09a2.73,2.73,0,0,0-.52.36,3.35,3.35,0,0,0-.47.51,6,6,0,0,0-1.09,3.23,9.72,9.72,0,0,0,.2,2.82,9.26,9.26,0,0,0,1.1,2.73.84.84,0,0,1,.09.22.65.65,0,0,1,0,.15c.12,3,.21,6,.32,8.95,0,1.31.07,2.63.18,3.93a21.56,21.56,0,0,0,.44,2.81,32.87,32.87,0,0,0,1.13,3.84.33.33,0,0,0,.23.21.14.14,0,0,0,.09,0,.26.26,0,0,0,.1-.11,1,1,0,0,0,.07-.18c.11-.41.23-.81.33-1.22a26.86,26.86,0,0,0,1-6.14c0-1.59,0-3.17-.06-4.74,0-.66,0-1.32,0-2a6.66,6.66,0,0,0,.59.45,3.44,3.44,0,0,0,2.95.31l.53-.19.53-.25.12-.06a9.24,9.24,0,0,0,3.15-3,15.77,15.77,0,0,0,2.42-7" fill="#cc2127"></path><path d="M154.25,183.55l.24-.12a10.91,10.91,0,0,1,3-1l.72-.1a7.3,7.3,0,0,1,6.62,2.84,10.67,10.67,0,0,1,2.2,4.65,24.1,24.1,0,0,1,.47,8.13,15.77,15.77,0,0,1-2.42,7,9.24,9.24,0,0,1-3.15,3l-.12.06-.53.25-.53.19a3.44,3.44,0,0,1-2.95-.31,6.67,6.67,0,0,1-.59-.45c0,.66,0,1.32,0,2,0,1.57.09,3.16.06,4.74a26.86,26.86,0,0,1-1,6.14c-.1.41-.22.81-.33,1.22a1,1,0,0,1-.07.18.26.26,0,0,1-.1.11.14.14,0,0,1-.09,0,.33.33,0,0,1-.23-.21,32.87,32.87,0,0,1-1.13-3.84,21.56,21.56,0,0,1-.44-2.81c-.11-1.29-.13-2.61-.18-3.93-.11-3-.21-6-.32-8.95a.65.65,0,0,0,0-.15.84.84,0,0,0-.09-.22,9.26,9.26,0,0,1-1.1-2.73,9.72,9.72,0,0,1-.2-2.82,6,6,0,0,1,1.09-3.23,3.35,3.35,0,0,1,.47-.51,2.73,2.73,0,0,1,.52-.36l.2-.09a1.61,1.61,0,0,1,1.37,0,2.55,2.55,0,0,1,1.15,1.7q0,.17.09.35a11.77,11.77,0,0,1,.21,2.57c0,1.69,0,3.38,0,5.06a5.06,5.06,0,0,0,.12,1.15,2.89,2.89,0,0,0,.56,1.2,1.92,1.92,0,0,0,2.31.64l.2-.08.1,0,.1,0,.2-.11a4.66,4.66,0,0,0,1.64-1.86,8.85,8.85,0,0,0,.49-1.11,14.76,14.76,0,0,0,.79-4.81,23.54,23.54,0,0,0-.43-4.75q-.07-.36-.15-.71a9.19,9.19,0,0,0-1.05-2.75,4.41,4.41,0,0,0-4.31-2.4,8,8,0,0,0-1.11.18,7.8,7.8,0,0,0-1.87.7l-.36.2a9.83,9.83,0,0,0-2.61,2.31q-.29.36-.56.75a13.12,13.12,0,0,0-2.22,8.76,11.84,11.84,0,0,0,.25,1.7,8.66,8.66,0,0,0,.5,1.56,4.23,4.23,0,0,0,1.41,1.85,1.14,1.14,0,0,1,.47.7,1.9,1.9,0,0,1,0,.47c0,.55,0,1.1,0,1.65a1.18,1.18,0,0,1-.19.72.6.6,0,0,1-.2.18.65.65,0,0,1-.32.07,3.93,3.93,0,0,1-3.26-2,11.38,11.38,0,0,1-1.66-3.9,15.44,15.44,0,0,1-.35-3.59,17.62,17.62,0,0,1,3.73-10.91l.14-.17a17,17,0,0,1,2.79-2.79l.31-.24a12.91,12.91,0,0,1,1.11-.73Z" fill="#fff"></path><path d="M86.78,146c3.51-1.71,6.74.68,7.25,5.35s-1.91,9.8-5.36,11.49l0,0c-3.48,1.67-6.73-.78-7.22-5.45S83.33,147.72,86.78,146Zm1.53,13.24c2-1,3.37-4,3.06-6.66s-2.2-4-4.19-3-3.38,4-3.1,6.63,2.16,4.09,4.19,3.1l0,0" fill="#fff"></path><path d="M93.44,140.84c.78-.38,1.52.13,1.66,1.17a2.79,2.79,0,0,1-1.23,2.71c-.82.4-1.55-.18-1.66-1.3A2.65,2.65,0,0,1,93.44,140.84Z" fill="#fff"></path><path d="M99.49,139.77c.77,5.23,1.4,10.57,1.79,16,.4,5.62-2,10.32-6.2,12.53-.71.38-1.41.73-2.12,1.08L89.64,171l-3.19,1.58-2,1c-4.32,2-7.58.18-8.49-5.39a159.54,159.54,0,0,1-1.78-16c-.34-5.25,1.58-9.16,5.53-11.68A64.25,64.25,0,0,1,86,136.91a47.52,47.52,0,0,1,6.61-2.66C96.18,133.12,98.8,135.1,99.49,139.77Zm-.9,16.52c-.44-4.77-.95-9.5-1.57-14.17-.53-4-2.16-5.13-5.2-3.86-.71.3-1.42.63-2.13,1-1.14.55-2.27,1.15-3.4,1.7l-2.87,1.37c-.83.41-1.67.82-2.5,1.26a9.08,9.08,0,0,0-1.82,1.32,6.76,6.76,0,0,0-2.28,5.71q.76,8.31,1.83,16.46c.3,2.26,1.58,3.25,3.34,3a8.36,8.36,0,0,0,2.44-.74q2.2-1,4.4-2.12l5-2.47a11.78,11.78,0,0,0,1.53-.94c2.47-1.77,3.51-4.06,3.19-7.49" fill="#fff"></path><path d="M258.06,103.35l-48.49,27.91a4.86,4.86,0,0,0-2.41,4.74l6.24,56.56a2.29,2.29,0,0,0,3.41,1.74l49.53-28.69a4.33,4.33,0,0,0,2.11-4.26c-2.16-18.66-4.09-36.31-6.21-55.8A2.81,2.81,0,0,0,258.06,103.35Z" fill="#096386"></path><path d="M247.93,136.17a23.22,23.22,0,0,1-.79,2.22c-.24.57-.54,1.09-.8,1.64a1,1,0,0,0-.09.43,28,28,0,0,1-1.76,13.1,21.24,21.24,0,0,1-5.45,8.43,15.74,15.74,0,0,1-2.86,2.1,8.34,8.34,0,0,1-6.44,1l-.11,0a9.61,9.61,0,0,0,.89-.44,13.14,13.14,0,0,0,4.92-5.35c-1.91.83-3.31.22-4.27-1.87A5.85,5.85,0,0,0,232,157a4.38,4.38,0,0,0,1-.72,5.87,5.87,0,0,1-1.06,0,2.79,2.79,0,0,1-1-.4,3.35,3.35,0,0,1-.84-.84,4.77,4.77,0,0,1-.59-1.17,8.63,8.63,0,0,1-.32-1.47,3.49,3.49,0,0,0,1.92-.39,3.87,3.87,0,0,1-2.22-3.15,8.53,8.53,0,0,1,.18-3.83c2.6,2.41,5.64,2.85,9.12,1.25-.06-.33-.13-.63-.17-.93a9.46,9.46,0,0,1,1.49-6.49,5.8,5.8,0,0,1,2-2,2.75,2.75,0,0,1,3,0,.31.31,0,0,0,.36,0l.15-.12a15.13,15.13,0,0,0,2.21-2.64,11,11,0,0,1-1.37,4.13c.23-.2.47-.39.71-.6s.49-.47.73-.72S247.71,136.43,247.93,136.17Z" fill="#fff"></path><path d="M171.5,92.37l1.05-.51.88-.43.44-.22c.25-.12.35,0,.38.38.1,1.36.19,2.71.29,4.07,0,.39-.07.59-.31.71l-.89.43-.86.43a1.91,1.91,0,0,0-.9,2.05l.2,2.87.33-.14,2.34-1.14c.34-.16.42-.09.43.45,0,1.39,0,2.78.06,4.17,0,.36-.1.54-.31.64l-2.12,1-.35.17,0,.59,1,13.72c0,.64,0,.7-.39.9l-3.15,1.54c-.4.19-.44.15-.49-.48q-.49-6.83-1-13.68l0-.63-1.54.75c-.43.21-.47.17-.52-.47l-.27-3.85c0-.54,0-.64.36-.82l1.6-.78c0-.2,0-.37,0-.54-.1-1.42-.24-2.82-.27-4.26-.06-2.68,1.27-5.54,3-6.43Z" fill="#fff"></path></svg>